G04 EAGLE Gerber X2 export*
%TF.Part,Single*%
%TF.FileFunction,Profile,NP*%
%TF.FilePolarity,Positive*%
%TF.GenerationSoftware,Autodesk,EAGLE,9.5.2*%
%TF.CreationDate,2020-10-15T10:25:45Z*%
G75*
%MOMM*%
%FSLAX35Y35*%
%LPD*%
%IN*%
%AMOC8*
5,1,8,0,0,1.08239X$1,22.5*%
G01*
%ADD10C,0.000000*%
%ADD11C,0.100000*%
%ADD12C,0.254000*%


D10*
X2035000Y1450000D02*
X2035050Y1454049D01*
X2035199Y1458096D01*
X2035447Y1462138D01*
X2035795Y1466173D01*
X2036241Y1470198D01*
X2036786Y1474211D01*
X2037429Y1478209D01*
X2038170Y1482190D01*
X2039009Y1486152D01*
X2039945Y1490092D01*
X2040977Y1494008D01*
X2042105Y1497897D01*
X2043328Y1501757D01*
X2044645Y1505587D01*
X2046056Y1509383D01*
X2047560Y1513143D01*
X2049155Y1516865D01*
X2050842Y1520547D01*
X2052618Y1524186D01*
X2054483Y1527780D01*
X2056436Y1531328D01*
X2058475Y1534827D01*
X2060599Y1538275D01*
X2062808Y1541669D01*
X2065099Y1545008D01*
X2067471Y1548290D01*
X2069923Y1551513D01*
X2072453Y1554675D01*
X2075061Y1557774D01*
X2077743Y1560807D01*
X2080499Y1563774D01*
X2083327Y1566673D01*
X2086226Y1569501D01*
X2089193Y1572257D01*
X2092226Y1574939D01*
X2095325Y1577547D01*
X2098487Y1580077D01*
X2101710Y1582529D01*
X2104992Y1584901D01*
X2108331Y1587192D01*
X2111725Y1589401D01*
X2115173Y1591525D01*
X2118672Y1593564D01*
X2122220Y1595517D01*
X2125814Y1597382D01*
X2129453Y1599158D01*
X2133135Y1600845D01*
X2136857Y1602440D01*
X2140617Y1603944D01*
X2144413Y1605355D01*
X2148243Y1606672D01*
X2152103Y1607895D01*
X2155992Y1609023D01*
X2159908Y1610055D01*
X2163848Y1610991D01*
X2167810Y1611830D01*
X2171791Y1612571D01*
X2175789Y1613214D01*
X2179802Y1613759D01*
X2183827Y1614205D01*
X2187862Y1614553D01*
X2191904Y1614801D01*
X2195951Y1614950D01*
X2200000Y1615000D01*
X2204049Y1614950D01*
X2208096Y1614801D01*
X2212138Y1614553D01*
X2216173Y1614205D01*
X2220198Y1613759D01*
X2224211Y1613214D01*
X2228209Y1612571D01*
X2232190Y1611830D01*
X2236152Y1610991D01*
X2240092Y1610055D01*
X2244008Y1609023D01*
X2247897Y1607895D01*
X2251757Y1606672D01*
X2255587Y1605355D01*
X2259383Y1603944D01*
X2263143Y1602440D01*
X2266865Y1600845D01*
X2270547Y1599158D01*
X2274186Y1597382D01*
X2277780Y1595517D01*
X2281328Y1593564D01*
X2284827Y1591525D01*
X2288275Y1589401D01*
X2291669Y1587192D01*
X2295008Y1584901D01*
X2298290Y1582529D01*
X2301513Y1580077D01*
X2304675Y1577547D01*
X2307774Y1574939D01*
X2310807Y1572257D01*
X2313774Y1569501D01*
X2316673Y1566673D01*
X2319501Y1563774D01*
X2322257Y1560807D01*
X2324939Y1557774D01*
X2327547Y1554675D01*
X2330077Y1551513D01*
X2332529Y1548290D01*
X2334901Y1545008D01*
X2337192Y1541669D01*
X2339401Y1538275D01*
X2341525Y1534827D01*
X2343564Y1531328D01*
X2345517Y1527780D01*
X2347382Y1524186D01*
X2349158Y1520547D01*
X2350845Y1516865D01*
X2352440Y1513143D01*
X2353944Y1509383D01*
X2355355Y1505587D01*
X2356672Y1501757D01*
X2357895Y1497897D01*
X2359023Y1494008D01*
X2360055Y1490092D01*
X2360991Y1486152D01*
X2361830Y1482190D01*
X2362571Y1478209D01*
X2363214Y1474211D01*
X2363759Y1470198D01*
X2364205Y1466173D01*
X2364553Y1462138D01*
X2364801Y1458096D01*
X2364950Y1454049D01*
X2365000Y1450000D01*
X2364950Y1445951D01*
X2364801Y1441904D01*
X2364553Y1437862D01*
X2364205Y1433827D01*
X2363759Y1429802D01*
X2363214Y1425789D01*
X2362571Y1421791D01*
X2361830Y1417810D01*
X2360991Y1413848D01*
X2360055Y1409908D01*
X2359023Y1405992D01*
X2357895Y1402103D01*
X2356672Y1398243D01*
X2355355Y1394413D01*
X2353944Y1390617D01*
X2352440Y1386857D01*
X2350845Y1383135D01*
X2349158Y1379453D01*
X2347382Y1375814D01*
X2345517Y1372220D01*
X2343564Y1368672D01*
X2341525Y1365173D01*
X2339401Y1361725D01*
X2337192Y1358331D01*
X2334901Y1354992D01*
X2332529Y1351710D01*
X2330077Y1348487D01*
X2327547Y1345325D01*
X2324939Y1342226D01*
X2322257Y1339193D01*
X2319501Y1336226D01*
X2316673Y1333327D01*
X2313774Y1330499D01*
X2310807Y1327743D01*
X2307774Y1325061D01*
X2304675Y1322453D01*
X2301513Y1319923D01*
X2298290Y1317471D01*
X2295008Y1315099D01*
X2291669Y1312808D01*
X2288275Y1310599D01*
X2284827Y1308475D01*
X2281328Y1306436D01*
X2277780Y1304483D01*
X2274186Y1302618D01*
X2270547Y1300842D01*
X2266865Y1299155D01*
X2263143Y1297560D01*
X2259383Y1296056D01*
X2255587Y1294645D01*
X2251757Y1293328D01*
X2247897Y1292105D01*
X2244008Y1290977D01*
X2240092Y1289945D01*
X2236152Y1289009D01*
X2232190Y1288170D01*
X2228209Y1287429D01*
X2224211Y1286786D01*
X2220198Y1286241D01*
X2216173Y1285795D01*
X2212138Y1285447D01*
X2208096Y1285199D01*
X2204049Y1285050D01*
X2200000Y1285000D01*
X2195951Y1285050D01*
X2191904Y1285199D01*
X2187862Y1285447D01*
X2183827Y1285795D01*
X2179802Y1286241D01*
X2175789Y1286786D01*
X2171791Y1287429D01*
X2167810Y1288170D01*
X2163848Y1289009D01*
X2159908Y1289945D01*
X2155992Y1290977D01*
X2152103Y1292105D01*
X2148243Y1293328D01*
X2144413Y1294645D01*
X2140617Y1296056D01*
X2136857Y1297560D01*
X2133135Y1299155D01*
X2129453Y1300842D01*
X2125814Y1302618D01*
X2122220Y1304483D01*
X2118672Y1306436D01*
X2115173Y1308475D01*
X2111725Y1310599D01*
X2108331Y1312808D01*
X2104992Y1315099D01*
X2101710Y1317471D01*
X2098487Y1319923D01*
X2095325Y1322453D01*
X2092226Y1325061D01*
X2089193Y1327743D01*
X2086226Y1330499D01*
X2083327Y1333327D01*
X2080499Y1336226D01*
X2077743Y1339193D01*
X2075061Y1342226D01*
X2072453Y1345325D01*
X2069923Y1348487D01*
X2067471Y1351710D01*
X2065099Y1354992D01*
X2062808Y1358331D01*
X2060599Y1361725D01*
X2058475Y1365173D01*
X2056436Y1368672D01*
X2054483Y1372220D01*
X2052618Y1375814D01*
X2050842Y1379453D01*
X2049155Y1383135D01*
X2047560Y1386857D01*
X2046056Y1390617D01*
X2044645Y1394413D01*
X2043328Y1398243D01*
X2042105Y1402103D01*
X2040977Y1405992D01*
X2039945Y1409908D01*
X2039009Y1413848D01*
X2038170Y1417810D01*
X2037429Y1421791D01*
X2036786Y1425789D01*
X2036241Y1429802D01*
X2035795Y1433827D01*
X2035447Y1437862D01*
X2035199Y1441904D01*
X2035050Y1445951D01*
X2035000Y1450000D01*
X6735000Y1450000D02*
X6735050Y1454049D01*
X6735199Y1458096D01*
X6735447Y1462138D01*
X6735795Y1466173D01*
X6736241Y1470198D01*
X6736786Y1474211D01*
X6737429Y1478209D01*
X6738170Y1482190D01*
X6739009Y1486152D01*
X6739945Y1490092D01*
X6740977Y1494008D01*
X6742105Y1497897D01*
X6743328Y1501757D01*
X6744645Y1505587D01*
X6746056Y1509383D01*
X6747560Y1513143D01*
X6749155Y1516865D01*
X6750842Y1520547D01*
X6752618Y1524186D01*
X6754483Y1527780D01*
X6756436Y1531328D01*
X6758475Y1534827D01*
X6760599Y1538275D01*
X6762808Y1541669D01*
X6765099Y1545008D01*
X6767471Y1548290D01*
X6769923Y1551513D01*
X6772453Y1554675D01*
X6775061Y1557774D01*
X6777743Y1560807D01*
X6780499Y1563774D01*
X6783327Y1566673D01*
X6786226Y1569501D01*
X6789193Y1572257D01*
X6792226Y1574939D01*
X6795325Y1577547D01*
X6798487Y1580077D01*
X6801710Y1582529D01*
X6804992Y1584901D01*
X6808331Y1587192D01*
X6811725Y1589401D01*
X6815173Y1591525D01*
X6818672Y1593564D01*
X6822220Y1595517D01*
X6825814Y1597382D01*
X6829453Y1599158D01*
X6833135Y1600845D01*
X6836857Y1602440D01*
X6840617Y1603944D01*
X6844413Y1605355D01*
X6848243Y1606672D01*
X6852103Y1607895D01*
X6855992Y1609023D01*
X6859908Y1610055D01*
X6863848Y1610991D01*
X6867810Y1611830D01*
X6871791Y1612571D01*
X6875789Y1613214D01*
X6879802Y1613759D01*
X6883827Y1614205D01*
X6887862Y1614553D01*
X6891904Y1614801D01*
X6895951Y1614950D01*
X6900000Y1615000D01*
X6904049Y1614950D01*
X6908096Y1614801D01*
X6912138Y1614553D01*
X6916173Y1614205D01*
X6920198Y1613759D01*
X6924211Y1613214D01*
X6928209Y1612571D01*
X6932190Y1611830D01*
X6936152Y1610991D01*
X6940092Y1610055D01*
X6944008Y1609023D01*
X6947897Y1607895D01*
X6951757Y1606672D01*
X6955587Y1605355D01*
X6959383Y1603944D01*
X6963143Y1602440D01*
X6966865Y1600845D01*
X6970547Y1599158D01*
X6974186Y1597382D01*
X6977780Y1595517D01*
X6981328Y1593564D01*
X6984827Y1591525D01*
X6988275Y1589401D01*
X6991669Y1587192D01*
X6995008Y1584901D01*
X6998290Y1582529D01*
X7001513Y1580077D01*
X7004675Y1577547D01*
X7007774Y1574939D01*
X7010807Y1572257D01*
X7013774Y1569501D01*
X7016673Y1566673D01*
X7019501Y1563774D01*
X7022257Y1560807D01*
X7024939Y1557774D01*
X7027547Y1554675D01*
X7030077Y1551513D01*
X7032529Y1548290D01*
X7034901Y1545008D01*
X7037192Y1541669D01*
X7039401Y1538275D01*
X7041525Y1534827D01*
X7043564Y1531328D01*
X7045517Y1527780D01*
X7047382Y1524186D01*
X7049158Y1520547D01*
X7050845Y1516865D01*
X7052440Y1513143D01*
X7053944Y1509383D01*
X7055355Y1505587D01*
X7056672Y1501757D01*
X7057895Y1497897D01*
X7059023Y1494008D01*
X7060055Y1490092D01*
X7060991Y1486152D01*
X7061830Y1482190D01*
X7062571Y1478209D01*
X7063214Y1474211D01*
X7063759Y1470198D01*
X7064205Y1466173D01*
X7064553Y1462138D01*
X7064801Y1458096D01*
X7064950Y1454049D01*
X7065000Y1450000D01*
X7064950Y1445951D01*
X7064801Y1441904D01*
X7064553Y1437862D01*
X7064205Y1433827D01*
X7063759Y1429802D01*
X7063214Y1425789D01*
X7062571Y1421791D01*
X7061830Y1417810D01*
X7060991Y1413848D01*
X7060055Y1409908D01*
X7059023Y1405992D01*
X7057895Y1402103D01*
X7056672Y1398243D01*
X7055355Y1394413D01*
X7053944Y1390617D01*
X7052440Y1386857D01*
X7050845Y1383135D01*
X7049158Y1379453D01*
X7047382Y1375814D01*
X7045517Y1372220D01*
X7043564Y1368672D01*
X7041525Y1365173D01*
X7039401Y1361725D01*
X7037192Y1358331D01*
X7034901Y1354992D01*
X7032529Y1351710D01*
X7030077Y1348487D01*
X7027547Y1345325D01*
X7024939Y1342226D01*
X7022257Y1339193D01*
X7019501Y1336226D01*
X7016673Y1333327D01*
X7013774Y1330499D01*
X7010807Y1327743D01*
X7007774Y1325061D01*
X7004675Y1322453D01*
X7001513Y1319923D01*
X6998290Y1317471D01*
X6995008Y1315099D01*
X6991669Y1312808D01*
X6988275Y1310599D01*
X6984827Y1308475D01*
X6981328Y1306436D01*
X6977780Y1304483D01*
X6974186Y1302618D01*
X6970547Y1300842D01*
X6966865Y1299155D01*
X6963143Y1297560D01*
X6959383Y1296056D01*
X6955587Y1294645D01*
X6951757Y1293328D01*
X6947897Y1292105D01*
X6944008Y1290977D01*
X6940092Y1289945D01*
X6936152Y1289009D01*
X6932190Y1288170D01*
X6928209Y1287429D01*
X6924211Y1286786D01*
X6920198Y1286241D01*
X6916173Y1285795D01*
X6912138Y1285447D01*
X6908096Y1285199D01*
X6904049Y1285050D01*
X6900000Y1285000D01*
X6895951Y1285050D01*
X6891904Y1285199D01*
X6887862Y1285447D01*
X6883827Y1285795D01*
X6879802Y1286241D01*
X6875789Y1286786D01*
X6871791Y1287429D01*
X6867810Y1288170D01*
X6863848Y1289009D01*
X6859908Y1289945D01*
X6855992Y1290977D01*
X6852103Y1292105D01*
X6848243Y1293328D01*
X6844413Y1294645D01*
X6840617Y1296056D01*
X6836857Y1297560D01*
X6833135Y1299155D01*
X6829453Y1300842D01*
X6825814Y1302618D01*
X6822220Y1304483D01*
X6818672Y1306436D01*
X6815173Y1308475D01*
X6811725Y1310599D01*
X6808331Y1312808D01*
X6804992Y1315099D01*
X6801710Y1317471D01*
X6798487Y1319923D01*
X6795325Y1322453D01*
X6792226Y1325061D01*
X6789193Y1327743D01*
X6786226Y1330499D01*
X6783327Y1333327D01*
X6780499Y1336226D01*
X6777743Y1339193D01*
X6775061Y1342226D01*
X6772453Y1345325D01*
X6769923Y1348487D01*
X6767471Y1351710D01*
X6765099Y1354992D01*
X6762808Y1358331D01*
X6760599Y1361725D01*
X6758475Y1365173D01*
X6756436Y1368672D01*
X6754483Y1372220D01*
X6752618Y1375814D01*
X6750842Y1379453D01*
X6749155Y1383135D01*
X6747560Y1386857D01*
X6746056Y1390617D01*
X6744645Y1394413D01*
X6743328Y1398243D01*
X6742105Y1402103D01*
X6740977Y1405992D01*
X6739945Y1409908D01*
X6739009Y1413848D01*
X6738170Y1417810D01*
X6737429Y1421791D01*
X6736786Y1425789D01*
X6736241Y1429802D01*
X6735795Y1433827D01*
X6735447Y1437862D01*
X6735199Y1441904D01*
X6735050Y1445951D01*
X6735000Y1450000D01*
D11*
X4670000Y6600000D02*
X4676134Y6600079D01*
X4682265Y6600309D01*
X4688388Y6600688D01*
X4694499Y6601218D01*
X4700596Y6601897D01*
X4706675Y6602726D01*
X4712731Y6603704D01*
X4718762Y6604830D01*
X4724763Y6606103D01*
X4730731Y6607523D01*
X4736662Y6609089D01*
X4742554Y6610800D01*
X4748401Y6612655D01*
X4754202Y6614653D01*
X4759951Y6616792D01*
X4765647Y6619072D01*
X4771284Y6621491D01*
X4776861Y6624047D01*
X4782374Y6626739D01*
X4787818Y6629566D01*
X4793192Y6632525D01*
X4798492Y6635615D01*
X4803714Y6638834D01*
X4808856Y6642181D01*
X4813914Y6645652D01*
X4818885Y6649246D01*
X4823767Y6652961D01*
X4828556Y6656795D01*
X4833250Y6660745D01*
X4837846Y6664809D01*
X4842340Y6668985D01*
X4846731Y6673269D01*
X4851015Y6677660D01*
X4855191Y6682154D01*
X4859255Y6686750D01*
X4863205Y6691444D01*
X4867039Y6696233D01*
X4870754Y6701115D01*
X4874348Y6706086D01*
X4877819Y6711144D01*
X4881166Y6716286D01*
X4884385Y6721508D01*
X4887475Y6726808D01*
X4890434Y6732182D01*
X4893261Y6737626D01*
X4895953Y6743139D01*
X4898509Y6748716D01*
X4900928Y6754353D01*
X4903208Y6760049D01*
X4905347Y6765798D01*
X4907345Y6771599D01*
X4909200Y6777446D01*
X4910911Y6783338D01*
X4912477Y6789269D01*
X4913897Y6795237D01*
X4915170Y6801238D01*
X4916296Y6807269D01*
X4917274Y6813325D01*
X4918103Y6819404D01*
X4918782Y6825501D01*
X4919312Y6831612D01*
X4919691Y6837735D01*
X4919921Y6843866D01*
X4920000Y6850000D01*
X4429999Y7100000D02*
X4423827Y7099960D01*
X4417657Y7099769D01*
X4411495Y7099427D01*
X4405342Y7098933D01*
X4399203Y7098289D01*
X4393082Y7097494D01*
X4386982Y7096549D01*
X4380907Y7095455D01*
X4374861Y7094212D01*
X4368848Y7092821D01*
X4362870Y7091283D01*
X4356931Y7089599D01*
X4351036Y7087770D01*
X4345188Y7085796D01*
X4339389Y7083680D01*
X4333645Y7081422D01*
X4327957Y7079023D01*
X4322330Y7076486D01*
X4316767Y7073812D01*
X4311272Y7071002D01*
X4305847Y7068057D01*
X4300495Y7064981D01*
X4295221Y7061774D01*
X4290028Y7058439D01*
X4284917Y7054977D01*
X4279893Y7051391D01*
X4274959Y7047683D01*
X4270117Y7043855D01*
X4265370Y7039909D01*
X4260722Y7035848D01*
X4256175Y7031674D01*
X4251731Y7027389D01*
X4247394Y7022997D01*
X4243166Y7018500D01*
X4239050Y7013901D01*
X4235048Y7009201D01*
X4231162Y7004405D01*
X4227395Y6999516D01*
X4223750Y6994535D01*
X4220227Y6989466D01*
X4216830Y6984312D01*
X4213561Y6979077D01*
X4210421Y6973763D01*
X4207412Y6968373D01*
X4204536Y6962911D01*
X4201796Y6957381D01*
X4199192Y6951785D01*
X4196726Y6946126D01*
X4194399Y6940409D01*
X4192214Y6934636D01*
X4190171Y6928812D01*
X4188271Y6922939D01*
X4186516Y6917021D01*
X4184907Y6911062D01*
X4183444Y6905065D01*
X4182130Y6899034D01*
X4180963Y6892973D01*
X4179946Y6886885D01*
X4179078Y6880774D01*
X4178360Y6874643D01*
X4177793Y6868497D01*
X4177378Y6862338D01*
X4177113Y6856171D01*
X4177000Y6850000D01*
X4430000Y7100000D02*
X4670000Y7100000D01*
X4177000Y6850000D02*
X4177109Y6843923D01*
X4177365Y6837850D01*
X4177768Y6831785D01*
X4178317Y6825732D01*
X4179012Y6819694D01*
X4179852Y6813675D01*
X4180838Y6807677D01*
X4181969Y6801706D01*
X4183244Y6795763D01*
X4184662Y6789853D01*
X4186222Y6783978D01*
X4187924Y6778144D01*
X4189766Y6772352D01*
X4191748Y6766606D01*
X4193868Y6760910D01*
X4196125Y6755266D01*
X4198518Y6749679D01*
X4201045Y6744152D01*
X4203705Y6738687D01*
X4206497Y6733288D01*
X4209418Y6727958D01*
X4212467Y6722700D01*
X4215642Y6717517D01*
X4218941Y6712413D01*
X4222363Y6707390D01*
X4225905Y6702451D01*
X4229566Y6697599D01*
X4233342Y6692837D01*
X4237233Y6688167D01*
X4241236Y6683593D01*
X4245347Y6679117D01*
X4249566Y6674742D01*
X4253890Y6670470D01*
X4258315Y6666304D01*
X4262840Y6662246D01*
X4267461Y6658298D01*
X4272176Y6654463D01*
X4276983Y6650743D01*
X4281878Y6647141D01*
X4286859Y6643658D01*
X4291923Y6640296D01*
X4297066Y6637058D01*
X4302287Y6633945D01*
X4307580Y6630959D01*
X4312945Y6628102D01*
X4318377Y6625375D01*
X4323873Y6622780D01*
X4329430Y6620319D01*
X4335046Y6617993D01*
X4340716Y6615804D01*
X4346437Y6613752D01*
X4352206Y6611838D01*
X4358019Y6610065D01*
X4363874Y6608433D01*
X4369766Y6606943D01*
X4375693Y6605596D01*
X4381650Y6604392D01*
X4387635Y6603333D01*
X4393644Y6602418D01*
X4399673Y6601649D01*
X4405719Y6601026D01*
X4411778Y6600550D01*
X4417847Y6600220D01*
X4423922Y6600036D01*
X4430000Y6600000D01*
X4920000Y6850000D02*
X4919922Y6856135D01*
X4919694Y6862265D01*
X4919315Y6868389D01*
X4918786Y6874501D01*
X4918108Y6880598D01*
X4917280Y6886677D01*
X4916303Y6892734D01*
X4915178Y6898765D01*
X4913906Y6904767D01*
X4912487Y6910735D01*
X4910921Y6916667D01*
X4909211Y6922559D01*
X4907356Y6928407D01*
X4905359Y6934208D01*
X4903220Y6939958D01*
X4900941Y6945654D01*
X4898523Y6951292D01*
X4895967Y6956870D01*
X4893275Y6962383D01*
X4890448Y6967828D01*
X4887489Y6973202D01*
X4884399Y6978502D01*
X4881180Y6983725D01*
X4877834Y6988867D01*
X4874363Y6993926D01*
X4870769Y6998897D01*
X4867053Y7003780D01*
X4863220Y7008569D01*
X4859269Y7013263D01*
X4855205Y7017859D01*
X4851030Y7022354D01*
X4846745Y7026745D01*
X4842354Y7031030D01*
X4837859Y7035205D01*
X4833263Y7039269D01*
X4828569Y7043220D01*
X4823780Y7047053D01*
X4818897Y7050769D01*
X4813926Y7054363D01*
X4808867Y7057834D01*
X4803725Y7061180D01*
X4798502Y7064399D01*
X4793202Y7067489D01*
X4787828Y7070448D01*
X4782383Y7073275D01*
X4776870Y7075967D01*
X4771292Y7078523D01*
X4765654Y7080941D01*
X4759958Y7083220D01*
X4754208Y7085359D01*
X4748407Y7087356D01*
X4742559Y7089211D01*
X4736667Y7090921D01*
X4730735Y7092487D01*
X4724767Y7093906D01*
X4718765Y7095178D01*
X4712734Y7096303D01*
X4706677Y7097280D01*
X4700598Y7098108D01*
X4694501Y7098786D01*
X4688389Y7099315D01*
X4682265Y7099694D01*
X4676135Y7099922D01*
X4670000Y7100000D01*
X4670000Y6600000D02*
X4430000Y6600000D01*
X0Y6000000D02*
X0Y200000D01*
X58Y195167D01*
X234Y190337D01*
X525Y185513D01*
X934Y180697D01*
X1458Y175893D01*
X2099Y171102D01*
X2855Y166329D01*
X3726Y161575D01*
X4712Y156843D01*
X5812Y152137D01*
X7025Y147459D01*
X8351Y142811D01*
X9789Y138197D01*
X11338Y133618D01*
X12997Y129079D01*
X14765Y124581D01*
X16642Y120127D01*
X18625Y115720D01*
X20715Y111362D01*
X22909Y107055D01*
X25206Y102803D01*
X27606Y98608D01*
X30106Y94472D01*
X32706Y90397D01*
X35403Y86387D01*
X38197Y82443D01*
X41084Y78567D01*
X44065Y74763D01*
X47137Y71032D01*
X50298Y67375D01*
X53546Y63797D01*
X56880Y60298D01*
X60298Y56880D01*
X63797Y53546D01*
X67375Y50298D01*
X71032Y47137D01*
X74763Y44065D01*
X78567Y41084D01*
X82443Y38197D01*
X86387Y35403D01*
X90397Y32706D01*
X94472Y30106D01*
X98608Y27606D01*
X102803Y25206D01*
X107055Y22909D01*
X111362Y20715D01*
X115720Y18625D01*
X120127Y16642D01*
X124581Y14765D01*
X129079Y12997D01*
X133618Y11338D01*
X138197Y9789D01*
X142811Y8351D01*
X147459Y7025D01*
X152137Y5812D01*
X156843Y4712D01*
X161575Y3726D01*
X166329Y2855D01*
X171102Y2099D01*
X175893Y1458D01*
X180697Y934D01*
X185513Y525D01*
X190337Y234D01*
X195167Y58D01*
X200000Y0D01*
X8900000Y0D01*
X8904833Y58D01*
X8909663Y234D01*
X8914487Y525D01*
X8919303Y934D01*
X8924107Y1458D01*
X8928898Y2099D01*
X8933671Y2855D01*
X8938425Y3726D01*
X8943157Y4712D01*
X8947863Y5812D01*
X8952541Y7025D01*
X8957189Y8351D01*
X8961803Y9789D01*
X8966382Y11338D01*
X8970921Y12997D01*
X8975419Y14765D01*
X8979873Y16642D01*
X8984280Y18625D01*
X8988638Y20715D01*
X8992945Y22909D01*
X8997197Y25206D01*
X9001392Y27606D01*
X9005528Y30106D01*
X9009603Y32706D01*
X9013613Y35403D01*
X9017557Y38197D01*
X9021433Y41084D01*
X9025237Y44065D01*
X9028968Y47137D01*
X9032625Y50298D01*
X9036203Y53546D01*
X9039702Y56880D01*
X9043120Y60298D01*
X9046454Y63797D01*
X9049702Y67375D01*
X9052863Y71032D01*
X9055935Y74763D01*
X9058916Y78567D01*
X9061803Y82443D01*
X9064597Y86387D01*
X9067294Y90397D01*
X9069894Y94472D01*
X9072394Y98608D01*
X9074794Y102803D01*
X9077091Y107055D01*
X9079285Y111362D01*
X9081375Y115720D01*
X9083358Y120127D01*
X9085235Y124581D01*
X9087003Y129079D01*
X9088662Y133618D01*
X9090211Y138197D01*
X9091649Y142811D01*
X9092975Y147459D01*
X9094188Y152137D01*
X9095288Y156843D01*
X9096274Y161575D01*
X9097145Y166329D01*
X9097901Y171102D01*
X9098542Y175893D01*
X9099066Y180697D01*
X9099475Y185513D01*
X9099766Y190337D01*
X9099942Y195167D01*
X9100000Y200000D01*
X9100000Y6000000D01*
X9099942Y6004833D01*
X9099766Y6009663D01*
X9099475Y6014487D01*
X9099066Y6019303D01*
X9098542Y6024107D01*
X9097901Y6028898D01*
X9097145Y6033671D01*
X9096274Y6038425D01*
X9095288Y6043157D01*
X9094188Y6047863D01*
X9092975Y6052541D01*
X9091649Y6057189D01*
X9090211Y6061803D01*
X9088662Y6066382D01*
X9087003Y6070921D01*
X9085235Y6075419D01*
X9083358Y6079873D01*
X9081375Y6084280D01*
X9079285Y6088638D01*
X9077091Y6092945D01*
X9074794Y6097197D01*
X9072394Y6101392D01*
X9069894Y6105528D01*
X9067294Y6109603D01*
X9064597Y6113613D01*
X9061803Y6117557D01*
X9058916Y6121433D01*
X9055935Y6125237D01*
X9052863Y6128968D01*
X9049702Y6132625D01*
X9046454Y6136203D01*
X9043120Y6139702D01*
X9039702Y6143120D01*
X9036203Y6146454D01*
X9032625Y6149702D01*
X9028968Y6152863D01*
X9025237Y6155935D01*
X9021433Y6158916D01*
X9017557Y6161803D01*
X9013613Y6164597D01*
X9009603Y6167294D01*
X9005528Y6169894D01*
X9001392Y6172394D01*
X8997197Y6174794D01*
X8992945Y6177091D01*
X8988638Y6179285D01*
X8984280Y6181375D01*
X8979873Y6183358D01*
X8975419Y6185235D01*
X8970921Y6187003D01*
X8966382Y6188662D01*
X8961803Y6190211D01*
X8957189Y6191649D01*
X8952541Y6192975D01*
X8947863Y6194188D01*
X8943157Y6195288D01*
X8938425Y6196274D01*
X8933671Y6197145D01*
X8928898Y6197901D01*
X8924107Y6198542D01*
X8919303Y6199066D01*
X8914487Y6199475D01*
X8909663Y6199766D01*
X8904833Y6199942D01*
X8900000Y6200000D01*
X5717306Y6200000D01*
X5706432Y6200131D01*
X5695565Y6200525D01*
X5684710Y6201182D01*
X5673875Y6202101D01*
X5663064Y6203281D01*
X5652286Y6204722D01*
X5641545Y6206423D01*
X5630849Y6208383D01*
X5620203Y6210602D01*
X5609614Y6213076D01*
X5599088Y6215806D01*
X5588630Y6218789D01*
X5578248Y6222025D01*
X5567947Y6225510D01*
X5557734Y6229243D01*
X5547613Y6233221D01*
X5537592Y6237444D01*
X5527676Y6241907D01*
X5517870Y6246608D01*
X5508181Y6251545D01*
X5498613Y6256714D01*
X5489174Y6262114D01*
X5479868Y6267739D01*
X5470700Y6273588D01*
X5461677Y6279657D01*
X5452803Y6285942D01*
X5444083Y6292440D01*
X5435523Y6299147D01*
X5427127Y6306058D01*
X5418901Y6313170D01*
X5410849Y6320479D01*
X5402976Y6327980D01*
X5395286Y6335670D01*
X5387785Y6343543D01*
X5380476Y6351595D01*
X5373364Y6359821D01*
X5366453Y6368217D01*
X5359746Y6376777D01*
X5353248Y6385497D01*
X5346963Y6394371D01*
X5340894Y6403394D01*
X5335045Y6412562D01*
X5329420Y6421868D01*
X5324020Y6431307D01*
X5318851Y6440875D01*
X5313914Y6450564D01*
X5309213Y6460370D01*
X5304750Y6470286D01*
X5300527Y6480307D01*
X5296549Y6490428D01*
X5292816Y6500641D01*
X5289331Y6510942D01*
X5286095Y6521324D01*
X5283112Y6531782D01*
X5280382Y6542308D01*
X5277908Y6552897D01*
X5275689Y6563543D01*
X5273729Y6574239D01*
X5272028Y6584980D01*
X5270587Y6595758D01*
X5269407Y6606569D01*
X5268488Y6617404D01*
X5267831Y6628259D01*
X5267437Y6639126D01*
X5267306Y6650000D01*
X5267306Y6952596D01*
X5267139Y6963607D01*
X5266702Y6974611D01*
X5265995Y6985601D01*
X5265018Y6996570D01*
X5263773Y7007512D01*
X5262259Y7018420D01*
X5260478Y7029288D01*
X5258431Y7040108D01*
X5256119Y7050876D01*
X5253544Y7061583D01*
X5250706Y7072224D01*
X5247608Y7082791D01*
X5244252Y7093280D01*
X5240640Y7103683D01*
X5236773Y7113995D01*
X5232654Y7124208D01*
X5228286Y7134317D01*
X5223671Y7144316D01*
X5218812Y7154199D01*
X5213712Y7163959D01*
X5208374Y7173592D01*
X5202801Y7183090D01*
X5196997Y7192449D01*
X5190965Y7201663D01*
X5184709Y7210726D01*
X5178232Y7219632D01*
X5171538Y7228377D01*
X5164632Y7236955D01*
X5157517Y7245361D01*
X5150199Y7253590D01*
X5142680Y7261636D01*
X5134967Y7269496D01*
X5127062Y7277164D01*
X5118972Y7284636D01*
X5110701Y7291907D01*
X5102254Y7298973D01*
X5093636Y7305829D01*
X5084853Y7312472D01*
X5075909Y7318897D01*
X5066810Y7325101D01*
X5057562Y7331080D01*
X5048170Y7336830D01*
X5038639Y7342348D01*
X5028976Y7347630D01*
X5019186Y7352673D01*
X5009276Y7357475D01*
X4999250Y7362032D01*
X4989116Y7366341D01*
X4978879Y7370401D01*
X4968545Y7374208D01*
X4958121Y7377760D01*
X4947613Y7381056D01*
X4937028Y7384093D01*
X4926371Y7386868D01*
X4915649Y7389382D01*
X4904868Y7391632D01*
X4894036Y7393616D01*
X4883158Y7395334D01*
X4872242Y7396785D01*
X4861293Y7397967D01*
X4850318Y7398880D01*
X4839324Y7399523D01*
X4828318Y7399897D01*
X4817306Y7400000D01*
X4293958Y7400000D01*
X4282948Y7399897D01*
X4271944Y7399524D01*
X4260953Y7398880D01*
X4249980Y7397968D01*
X4239033Y7396786D01*
X4228118Y7395336D01*
X4217243Y7393619D01*
X4206412Y7391635D01*
X4195634Y7389386D01*
X4184914Y7386874D01*
X4174259Y7384099D01*
X4163675Y7381063D01*
X4153169Y7377769D01*
X4142747Y7374218D01*
X4132415Y7370412D01*
X4122180Y7366354D01*
X4112047Y7362046D01*
X4102023Y7357491D01*
X4092114Y7352691D01*
X4082325Y7347650D01*
X4072663Y7342369D01*
X4063134Y7336854D01*
X4053743Y7331106D01*
X4044496Y7325129D01*
X4035398Y7318928D01*
X4026455Y7312505D01*
X4017672Y7305864D01*
X4009055Y7299010D01*
X4000609Y7291947D01*
X3992339Y7284678D01*
X3984249Y7277209D01*
X3976345Y7269544D01*
X3968632Y7261686D01*
X3961113Y7253642D01*
X3953795Y7245416D01*
X3946680Y7237013D01*
X3939774Y7228438D01*
X3933080Y7219696D01*
X3926603Y7210792D01*
X3920346Y7201732D01*
X3914313Y7192522D01*
X3908508Y7183166D01*
X3902935Y7173670D01*
X3897596Y7164041D01*
X3892495Y7154283D01*
X3887635Y7144403D01*
X3883018Y7134407D01*
X3878649Y7124301D01*
X3874529Y7114090D01*
X3870660Y7103782D01*
X3867046Y7093382D01*
X3863688Y7082896D01*
X3860588Y7072331D01*
X3857748Y7061693D01*
X3855170Y7050988D01*
X3852856Y7040224D01*
X3850807Y7029405D01*
X3849023Y7018540D01*
X3847507Y7007635D01*
X3846258Y6996695D01*
X3845279Y6985728D01*
X3844569Y6974741D01*
X3844129Y6963739D01*
X3843958Y6952730D01*
X3843957Y6952730D02*
X3843957Y6692596D01*
X3843958Y6692596D02*
X3843958Y6952730D01*
X3843958Y6692596D02*
X3843958Y6650000D01*
X3843827Y6639126D01*
X3843433Y6628259D01*
X3842776Y6617404D01*
X3841857Y6606569D01*
X3840677Y6595758D01*
X3839236Y6584980D01*
X3837535Y6574239D01*
X3835575Y6563543D01*
X3833356Y6552897D01*
X3830882Y6542308D01*
X3828152Y6531782D01*
X3825169Y6521324D01*
X3821933Y6510942D01*
X3818448Y6500641D01*
X3814715Y6490428D01*
X3810737Y6480307D01*
X3806514Y6470286D01*
X3802051Y6460370D01*
X3797350Y6450564D01*
X3792413Y6440875D01*
X3787244Y6431307D01*
X3781844Y6421868D01*
X3776219Y6412562D01*
X3770370Y6403394D01*
X3764301Y6394371D01*
X3758016Y6385497D01*
X3751518Y6376777D01*
X3744811Y6368217D01*
X3737900Y6359821D01*
X3730788Y6351595D01*
X3723479Y6343543D01*
X3715978Y6335670D01*
X3708288Y6327980D01*
X3700415Y6320479D01*
X3692363Y6313170D01*
X3684137Y6306058D01*
X3675741Y6299147D01*
X3667181Y6292440D01*
X3658461Y6285942D01*
X3649587Y6279657D01*
X3640564Y6273588D01*
X3631396Y6267739D01*
X3622090Y6262114D01*
X3612651Y6256714D01*
X3603083Y6251545D01*
X3593394Y6246608D01*
X3583588Y6241907D01*
X3573672Y6237444D01*
X3563651Y6233221D01*
X3553530Y6229243D01*
X3543317Y6225510D01*
X3533016Y6222025D01*
X3522634Y6218789D01*
X3512176Y6215806D01*
X3501650Y6213076D01*
X3491061Y6210602D01*
X3480415Y6208383D01*
X3469719Y6206423D01*
X3458978Y6204722D01*
X3448200Y6203281D01*
X3437389Y6202101D01*
X3426554Y6201182D01*
X3415699Y6200525D01*
X3404832Y6200131D01*
X3393958Y6200000D01*
X200000Y6200000D01*
X195167Y6199942D01*
X190337Y6199766D01*
X185513Y6199475D01*
X180697Y6199066D01*
X175893Y6198542D01*
X171102Y6197901D01*
X166329Y6197145D01*
X161575Y6196274D01*
X156843Y6195288D01*
X152137Y6194188D01*
X147459Y6192975D01*
X142811Y6191649D01*
X138197Y6190211D01*
X133618Y6188662D01*
X129079Y6187003D01*
X124581Y6185235D01*
X120127Y6183358D01*
X115720Y6181375D01*
X111362Y6179285D01*
X107055Y6177091D01*
X102803Y6174794D01*
X98608Y6172394D01*
X94472Y6169894D01*
X90397Y6167294D01*
X86387Y6164597D01*
X82443Y6161803D01*
X78567Y6158916D01*
X74763Y6155935D01*
X71032Y6152863D01*
X67375Y6149702D01*
X63797Y6146454D01*
X60298Y6143120D01*
X56880Y6139702D01*
X53546Y6136203D01*
X50298Y6132625D01*
X47137Y6128968D01*
X44065Y6125237D01*
X41084Y6121433D01*
X38197Y6117557D01*
X35403Y6113613D01*
X32706Y6109603D01*
X30106Y6105528D01*
X27606Y6101392D01*
X25206Y6097197D01*
X22909Y6092945D01*
X20715Y6088638D01*
X18625Y6084280D01*
X16642Y6079873D01*
X14765Y6075419D01*
X12997Y6070921D01*
X11338Y6066382D01*
X9789Y6061803D01*
X8351Y6057189D01*
X7025Y6052541D01*
X5812Y6047863D01*
X4712Y6043157D01*
X3726Y6038425D01*
X2855Y6033671D01*
X2099Y6028898D01*
X1458Y6024107D01*
X934Y6019303D01*
X525Y6014487D01*
X234Y6009663D01*
X58Y6004833D01*
X0Y6000000D01*
D10*
X2989000Y1300000D02*
X2989050Y1304049D01*
X2989199Y1308096D01*
X2989447Y1312138D01*
X2989795Y1316173D01*
X2990241Y1320198D01*
X2990786Y1324211D01*
X2991429Y1328209D01*
X2992170Y1332190D01*
X2993009Y1336152D01*
X2993945Y1340092D01*
X2994977Y1344008D01*
X2996105Y1347897D01*
X2997328Y1351757D01*
X2998645Y1355587D01*
X3000056Y1359383D01*
X3001560Y1363143D01*
X3003155Y1366865D01*
X3004842Y1370547D01*
X3006618Y1374186D01*
X3008483Y1377780D01*
X3010436Y1381328D01*
X3012475Y1384827D01*
X3014599Y1388275D01*
X3016808Y1391669D01*
X3019099Y1395008D01*
X3021471Y1398290D01*
X3023923Y1401513D01*
X3026453Y1404675D01*
X3029061Y1407774D01*
X3031743Y1410807D01*
X3034499Y1413774D01*
X3037327Y1416673D01*
X3040226Y1419501D01*
X3043193Y1422257D01*
X3046226Y1424939D01*
X3049325Y1427547D01*
X3052487Y1430077D01*
X3055710Y1432529D01*
X3058992Y1434901D01*
X3062331Y1437192D01*
X3065725Y1439401D01*
X3069173Y1441525D01*
X3072672Y1443564D01*
X3076220Y1445517D01*
X3079814Y1447382D01*
X3083453Y1449158D01*
X3087135Y1450845D01*
X3090857Y1452440D01*
X3094617Y1453944D01*
X3098413Y1455355D01*
X3102243Y1456672D01*
X3106103Y1457895D01*
X3109992Y1459023D01*
X3113908Y1460055D01*
X3117848Y1460991D01*
X3121810Y1461830D01*
X3125791Y1462571D01*
X3129789Y1463214D01*
X3133802Y1463759D01*
X3137827Y1464205D01*
X3141862Y1464553D01*
X3145904Y1464801D01*
X3149951Y1464950D01*
X3154000Y1465000D01*
X3158049Y1464950D01*
X3162096Y1464801D01*
X3166138Y1464553D01*
X3170173Y1464205D01*
X3174198Y1463759D01*
X3178211Y1463214D01*
X3182209Y1462571D01*
X3186190Y1461830D01*
X3190152Y1460991D01*
X3194092Y1460055D01*
X3198008Y1459023D01*
X3201897Y1457895D01*
X3205757Y1456672D01*
X3209587Y1455355D01*
X3213383Y1453944D01*
X3217143Y1452440D01*
X3220865Y1450845D01*
X3224547Y1449158D01*
X3228186Y1447382D01*
X3231780Y1445517D01*
X3235328Y1443564D01*
X3238827Y1441525D01*
X3242275Y1439401D01*
X3245669Y1437192D01*
X3249008Y1434901D01*
X3252290Y1432529D01*
X3255513Y1430077D01*
X3258675Y1427547D01*
X3261774Y1424939D01*
X3264807Y1422257D01*
X3267774Y1419501D01*
X3270673Y1416673D01*
X3273501Y1413774D01*
X3276257Y1410807D01*
X3278939Y1407774D01*
X3281547Y1404675D01*
X3284077Y1401513D01*
X3286529Y1398290D01*
X3288901Y1395008D01*
X3291192Y1391669D01*
X3293401Y1388275D01*
X3295525Y1384827D01*
X3297564Y1381328D01*
X3299517Y1377780D01*
X3301382Y1374186D01*
X3303158Y1370547D01*
X3304845Y1366865D01*
X3306440Y1363143D01*
X3307944Y1359383D01*
X3309355Y1355587D01*
X3310672Y1351757D01*
X3311895Y1347897D01*
X3313023Y1344008D01*
X3314055Y1340092D01*
X3314991Y1336152D01*
X3315830Y1332190D01*
X3316571Y1328209D01*
X3317214Y1324211D01*
X3317759Y1320198D01*
X3318205Y1316173D01*
X3318553Y1312138D01*
X3318801Y1308096D01*
X3318950Y1304049D01*
X3319000Y1300000D01*
X3318950Y1295951D01*
X3318801Y1291904D01*
X3318553Y1287862D01*
X3318205Y1283827D01*
X3317759Y1279802D01*
X3317214Y1275789D01*
X3316571Y1271791D01*
X3315830Y1267810D01*
X3314991Y1263848D01*
X3314055Y1259908D01*
X3313023Y1255992D01*
X3311895Y1252103D01*
X3310672Y1248243D01*
X3309355Y1244413D01*
X3307944Y1240617D01*
X3306440Y1236857D01*
X3304845Y1233135D01*
X3303158Y1229453D01*
X3301382Y1225814D01*
X3299517Y1222220D01*
X3297564Y1218672D01*
X3295525Y1215173D01*
X3293401Y1211725D01*
X3291192Y1208331D01*
X3288901Y1204992D01*
X3286529Y1201710D01*
X3284077Y1198487D01*
X3281547Y1195325D01*
X3278939Y1192226D01*
X3276257Y1189193D01*
X3273501Y1186226D01*
X3270673Y1183327D01*
X3267774Y1180499D01*
X3264807Y1177743D01*
X3261774Y1175061D01*
X3258675Y1172453D01*
X3255513Y1169923D01*
X3252290Y1167471D01*
X3249008Y1165099D01*
X3245669Y1162808D01*
X3242275Y1160599D01*
X3238827Y1158475D01*
X3235328Y1156436D01*
X3231780Y1154483D01*
X3228186Y1152618D01*
X3224547Y1150842D01*
X3220865Y1149155D01*
X3217143Y1147560D01*
X3213383Y1146056D01*
X3209587Y1144645D01*
X3205757Y1143328D01*
X3201897Y1142105D01*
X3198008Y1140977D01*
X3194092Y1139945D01*
X3190152Y1139009D01*
X3186190Y1138170D01*
X3182209Y1137429D01*
X3178211Y1136786D01*
X3174198Y1136241D01*
X3170173Y1135795D01*
X3166138Y1135447D01*
X3162096Y1135199D01*
X3158049Y1135050D01*
X3154000Y1135000D01*
X3149951Y1135050D01*
X3145904Y1135199D01*
X3141862Y1135447D01*
X3137827Y1135795D01*
X3133802Y1136241D01*
X3129789Y1136786D01*
X3125791Y1137429D01*
X3121810Y1138170D01*
X3117848Y1139009D01*
X3113908Y1139945D01*
X3109992Y1140977D01*
X3106103Y1142105D01*
X3102243Y1143328D01*
X3098413Y1144645D01*
X3094617Y1146056D01*
X3090857Y1147560D01*
X3087135Y1149155D01*
X3083453Y1150842D01*
X3079814Y1152618D01*
X3076220Y1154483D01*
X3072672Y1156436D01*
X3069173Y1158475D01*
X3065725Y1160599D01*
X3062331Y1162808D01*
X3058992Y1165099D01*
X3055710Y1167471D01*
X3052487Y1169923D01*
X3049325Y1172453D01*
X3046226Y1175061D01*
X3043193Y1177743D01*
X3040226Y1180499D01*
X3037327Y1183327D01*
X3034499Y1186226D01*
X3031743Y1189193D01*
X3029061Y1192226D01*
X3026453Y1195325D01*
X3023923Y1198487D01*
X3021471Y1201710D01*
X3019099Y1204992D01*
X3016808Y1208331D01*
X3014599Y1211725D01*
X3012475Y1215173D01*
X3010436Y1218672D01*
X3008483Y1222220D01*
X3006618Y1225814D01*
X3004842Y1229453D01*
X3003155Y1233135D01*
X3001560Y1236857D01*
X3000056Y1240617D01*
X2998645Y1244413D01*
X2997328Y1248243D01*
X2996105Y1252103D01*
X2994977Y1255992D01*
X2993945Y1259908D01*
X2993009Y1263848D01*
X2992170Y1267810D01*
X2991429Y1271791D01*
X2990786Y1275789D01*
X2990241Y1279802D01*
X2989795Y1283827D01*
X2989447Y1287862D01*
X2989199Y1291904D01*
X2989050Y1295951D01*
X2989000Y1300000D01*
X3229000Y2576000D02*
X3229050Y2580049D01*
X3229199Y2584096D01*
X3229447Y2588138D01*
X3229795Y2592173D01*
X3230241Y2596198D01*
X3230786Y2600211D01*
X3231429Y2604209D01*
X3232170Y2608190D01*
X3233009Y2612152D01*
X3233945Y2616092D01*
X3234977Y2620008D01*
X3236105Y2623897D01*
X3237328Y2627757D01*
X3238645Y2631587D01*
X3240056Y2635383D01*
X3241560Y2639143D01*
X3243155Y2642865D01*
X3244842Y2646547D01*
X3246618Y2650186D01*
X3248483Y2653780D01*
X3250436Y2657328D01*
X3252475Y2660827D01*
X3254599Y2664275D01*
X3256808Y2667669D01*
X3259099Y2671008D01*
X3261471Y2674290D01*
X3263923Y2677513D01*
X3266453Y2680675D01*
X3269061Y2683774D01*
X3271743Y2686807D01*
X3274499Y2689774D01*
X3277327Y2692673D01*
X3280226Y2695501D01*
X3283193Y2698257D01*
X3286226Y2700939D01*
X3289325Y2703547D01*
X3292487Y2706077D01*
X3295710Y2708529D01*
X3298992Y2710901D01*
X3302331Y2713192D01*
X3305725Y2715401D01*
X3309173Y2717525D01*
X3312672Y2719564D01*
X3316220Y2721517D01*
X3319814Y2723382D01*
X3323453Y2725158D01*
X3327135Y2726845D01*
X3330857Y2728440D01*
X3334617Y2729944D01*
X3338413Y2731355D01*
X3342243Y2732672D01*
X3346103Y2733895D01*
X3349992Y2735023D01*
X3353908Y2736055D01*
X3357848Y2736991D01*
X3361810Y2737830D01*
X3365791Y2738571D01*
X3369789Y2739214D01*
X3373802Y2739759D01*
X3377827Y2740205D01*
X3381862Y2740553D01*
X3385904Y2740801D01*
X3389951Y2740950D01*
X3394000Y2741000D01*
X3398049Y2740950D01*
X3402096Y2740801D01*
X3406138Y2740553D01*
X3410173Y2740205D01*
X3414198Y2739759D01*
X3418211Y2739214D01*
X3422209Y2738571D01*
X3426190Y2737830D01*
X3430152Y2736991D01*
X3434092Y2736055D01*
X3438008Y2735023D01*
X3441897Y2733895D01*
X3445757Y2732672D01*
X3449587Y2731355D01*
X3453383Y2729944D01*
X3457143Y2728440D01*
X3460865Y2726845D01*
X3464547Y2725158D01*
X3468186Y2723382D01*
X3471780Y2721517D01*
X3475328Y2719564D01*
X3478827Y2717525D01*
X3482275Y2715401D01*
X3485669Y2713192D01*
X3489008Y2710901D01*
X3492290Y2708529D01*
X3495513Y2706077D01*
X3498675Y2703547D01*
X3501774Y2700939D01*
X3504807Y2698257D01*
X3507774Y2695501D01*
X3510673Y2692673D01*
X3513501Y2689774D01*
X3516257Y2686807D01*
X3518939Y2683774D01*
X3521547Y2680675D01*
X3524077Y2677513D01*
X3526529Y2674290D01*
X3528901Y2671008D01*
X3531192Y2667669D01*
X3533401Y2664275D01*
X3535525Y2660827D01*
X3537564Y2657328D01*
X3539517Y2653780D01*
X3541382Y2650186D01*
X3543158Y2646547D01*
X3544845Y2642865D01*
X3546440Y2639143D01*
X3547944Y2635383D01*
X3549355Y2631587D01*
X3550672Y2627757D01*
X3551895Y2623897D01*
X3553023Y2620008D01*
X3554055Y2616092D01*
X3554991Y2612152D01*
X3555830Y2608190D01*
X3556571Y2604209D01*
X3557214Y2600211D01*
X3557759Y2596198D01*
X3558205Y2592173D01*
X3558553Y2588138D01*
X3558801Y2584096D01*
X3558950Y2580049D01*
X3559000Y2576000D01*
X3558950Y2571951D01*
X3558801Y2567904D01*
X3558553Y2563862D01*
X3558205Y2559827D01*
X3557759Y2555802D01*
X3557214Y2551789D01*
X3556571Y2547791D01*
X3555830Y2543810D01*
X3554991Y2539848D01*
X3554055Y2535908D01*
X3553023Y2531992D01*
X3551895Y2528103D01*
X3550672Y2524243D01*
X3549355Y2520413D01*
X3547944Y2516617D01*
X3546440Y2512857D01*
X3544845Y2509135D01*
X3543158Y2505453D01*
X3541382Y2501814D01*
X3539517Y2498220D01*
X3537564Y2494672D01*
X3535525Y2491173D01*
X3533401Y2487725D01*
X3531192Y2484331D01*
X3528901Y2480992D01*
X3526529Y2477710D01*
X3524077Y2474487D01*
X3521547Y2471325D01*
X3518939Y2468226D01*
X3516257Y2465193D01*
X3513501Y2462226D01*
X3510673Y2459327D01*
X3507774Y2456499D01*
X3504807Y2453743D01*
X3501774Y2451061D01*
X3498675Y2448453D01*
X3495513Y2445923D01*
X3492290Y2443471D01*
X3489008Y2441099D01*
X3485669Y2438808D01*
X3482275Y2436599D01*
X3478827Y2434475D01*
X3475328Y2432436D01*
X3471780Y2430483D01*
X3468186Y2428618D01*
X3464547Y2426842D01*
X3460865Y2425155D01*
X3457143Y2423560D01*
X3453383Y2422056D01*
X3449587Y2420645D01*
X3445757Y2419328D01*
X3441897Y2418105D01*
X3438008Y2416977D01*
X3434092Y2415945D01*
X3430152Y2415009D01*
X3426190Y2414170D01*
X3422209Y2413429D01*
X3418211Y2412786D01*
X3414198Y2412241D01*
X3410173Y2411795D01*
X3406138Y2411447D01*
X3402096Y2411199D01*
X3398049Y2411050D01*
X3394000Y2411000D01*
X3389951Y2411050D01*
X3385904Y2411199D01*
X3381862Y2411447D01*
X3377827Y2411795D01*
X3373802Y2412241D01*
X3369789Y2412786D01*
X3365791Y2413429D01*
X3361810Y2414170D01*
X3357848Y2415009D01*
X3353908Y2415945D01*
X3349992Y2416977D01*
X3346103Y2418105D01*
X3342243Y2419328D01*
X3338413Y2420645D01*
X3334617Y2422056D01*
X3330857Y2423560D01*
X3327135Y2425155D01*
X3323453Y2426842D01*
X3319814Y2428618D01*
X3316220Y2430483D01*
X3312672Y2432436D01*
X3309173Y2434475D01*
X3305725Y2436599D01*
X3302331Y2438808D01*
X3298992Y2441099D01*
X3295710Y2443471D01*
X3292487Y2445923D01*
X3289325Y2448453D01*
X3286226Y2451061D01*
X3283193Y2453743D01*
X3280226Y2456499D01*
X3277327Y2459327D01*
X3274499Y2462226D01*
X3271743Y2465193D01*
X3269061Y2468226D01*
X3266453Y2471325D01*
X3263923Y2474487D01*
X3261471Y2477710D01*
X3259099Y2480992D01*
X3256808Y2484331D01*
X3254599Y2487725D01*
X3252475Y2491173D01*
X3250436Y2494672D01*
X3248483Y2498220D01*
X3246618Y2501814D01*
X3244842Y2505453D01*
X3243155Y2509135D01*
X3241560Y2512857D01*
X3240056Y2516617D01*
X3238645Y2520413D01*
X3237328Y2524243D01*
X3236105Y2528103D01*
X3234977Y2531992D01*
X3233945Y2535908D01*
X3233009Y2539848D01*
X3232170Y2543810D01*
X3231429Y2547791D01*
X3230786Y2551789D01*
X3230241Y2555802D01*
X3229795Y2559827D01*
X3229447Y2563862D01*
X3229199Y2567904D01*
X3229050Y2571951D01*
X3229000Y2576000D01*
X2989000Y4200000D02*
X2989050Y4204049D01*
X2989199Y4208096D01*
X2989447Y4212138D01*
X2989795Y4216173D01*
X2990241Y4220198D01*
X2990786Y4224211D01*
X2991429Y4228209D01*
X2992170Y4232190D01*
X2993009Y4236152D01*
X2993945Y4240092D01*
X2994977Y4244008D01*
X2996105Y4247897D01*
X2997328Y4251757D01*
X2998645Y4255587D01*
X3000056Y4259383D01*
X3001560Y4263143D01*
X3003155Y4266865D01*
X3004842Y4270547D01*
X3006618Y4274186D01*
X3008483Y4277780D01*
X3010436Y4281328D01*
X3012475Y4284827D01*
X3014599Y4288275D01*
X3016808Y4291669D01*
X3019099Y4295008D01*
X3021471Y4298290D01*
X3023923Y4301513D01*
X3026453Y4304675D01*
X3029061Y4307774D01*
X3031743Y4310807D01*
X3034499Y4313774D01*
X3037327Y4316673D01*
X3040226Y4319501D01*
X3043193Y4322257D01*
X3046226Y4324939D01*
X3049325Y4327547D01*
X3052487Y4330077D01*
X3055710Y4332529D01*
X3058992Y4334901D01*
X3062331Y4337192D01*
X3065725Y4339401D01*
X3069173Y4341525D01*
X3072672Y4343564D01*
X3076220Y4345517D01*
X3079814Y4347382D01*
X3083453Y4349158D01*
X3087135Y4350845D01*
X3090857Y4352440D01*
X3094617Y4353944D01*
X3098413Y4355355D01*
X3102243Y4356672D01*
X3106103Y4357895D01*
X3109992Y4359023D01*
X3113908Y4360055D01*
X3117848Y4360991D01*
X3121810Y4361830D01*
X3125791Y4362571D01*
X3129789Y4363214D01*
X3133802Y4363759D01*
X3137827Y4364205D01*
X3141862Y4364553D01*
X3145904Y4364801D01*
X3149951Y4364950D01*
X3154000Y4365000D01*
X3158049Y4364950D01*
X3162096Y4364801D01*
X3166138Y4364553D01*
X3170173Y4364205D01*
X3174198Y4363759D01*
X3178211Y4363214D01*
X3182209Y4362571D01*
X3186190Y4361830D01*
X3190152Y4360991D01*
X3194092Y4360055D01*
X3198008Y4359023D01*
X3201897Y4357895D01*
X3205757Y4356672D01*
X3209587Y4355355D01*
X3213383Y4353944D01*
X3217143Y4352440D01*
X3220865Y4350845D01*
X3224547Y4349158D01*
X3228186Y4347382D01*
X3231780Y4345517D01*
X3235328Y4343564D01*
X3238827Y4341525D01*
X3242275Y4339401D01*
X3245669Y4337192D01*
X3249008Y4334901D01*
X3252290Y4332529D01*
X3255513Y4330077D01*
X3258675Y4327547D01*
X3261774Y4324939D01*
X3264807Y4322257D01*
X3267774Y4319501D01*
X3270673Y4316673D01*
X3273501Y4313774D01*
X3276257Y4310807D01*
X3278939Y4307774D01*
X3281547Y4304675D01*
X3284077Y4301513D01*
X3286529Y4298290D01*
X3288901Y4295008D01*
X3291192Y4291669D01*
X3293401Y4288275D01*
X3295525Y4284827D01*
X3297564Y4281328D01*
X3299517Y4277780D01*
X3301382Y4274186D01*
X3303158Y4270547D01*
X3304845Y4266865D01*
X3306440Y4263143D01*
X3307944Y4259383D01*
X3309355Y4255587D01*
X3310672Y4251757D01*
X3311895Y4247897D01*
X3313023Y4244008D01*
X3314055Y4240092D01*
X3314991Y4236152D01*
X3315830Y4232190D01*
X3316571Y4228209D01*
X3317214Y4224211D01*
X3317759Y4220198D01*
X3318205Y4216173D01*
X3318553Y4212138D01*
X3318801Y4208096D01*
X3318950Y4204049D01*
X3319000Y4200000D01*
X3318950Y4195951D01*
X3318801Y4191904D01*
X3318553Y4187862D01*
X3318205Y4183827D01*
X3317759Y4179802D01*
X3317214Y4175789D01*
X3316571Y4171791D01*
X3315830Y4167810D01*
X3314991Y4163848D01*
X3314055Y4159908D01*
X3313023Y4155992D01*
X3311895Y4152103D01*
X3310672Y4148243D01*
X3309355Y4144413D01*
X3307944Y4140617D01*
X3306440Y4136857D01*
X3304845Y4133135D01*
X3303158Y4129453D01*
X3301382Y4125814D01*
X3299517Y4122220D01*
X3297564Y4118672D01*
X3295525Y4115173D01*
X3293401Y4111725D01*
X3291192Y4108331D01*
X3288901Y4104992D01*
X3286529Y4101710D01*
X3284077Y4098487D01*
X3281547Y4095325D01*
X3278939Y4092226D01*
X3276257Y4089193D01*
X3273501Y4086226D01*
X3270673Y4083327D01*
X3267774Y4080499D01*
X3264807Y4077743D01*
X3261774Y4075061D01*
X3258675Y4072453D01*
X3255513Y4069923D01*
X3252290Y4067471D01*
X3249008Y4065099D01*
X3245669Y4062808D01*
X3242275Y4060599D01*
X3238827Y4058475D01*
X3235328Y4056436D01*
X3231780Y4054483D01*
X3228186Y4052618D01*
X3224547Y4050842D01*
X3220865Y4049155D01*
X3217143Y4047560D01*
X3213383Y4046056D01*
X3209587Y4044645D01*
X3205757Y4043328D01*
X3201897Y4042105D01*
X3198008Y4040977D01*
X3194092Y4039945D01*
X3190152Y4039009D01*
X3186190Y4038170D01*
X3182209Y4037429D01*
X3178211Y4036786D01*
X3174198Y4036241D01*
X3170173Y4035795D01*
X3166138Y4035447D01*
X3162096Y4035199D01*
X3158049Y4035050D01*
X3154000Y4035000D01*
X3149951Y4035050D01*
X3145904Y4035199D01*
X3141862Y4035447D01*
X3137827Y4035795D01*
X3133802Y4036241D01*
X3129789Y4036786D01*
X3125791Y4037429D01*
X3121810Y4038170D01*
X3117848Y4039009D01*
X3113908Y4039945D01*
X3109992Y4040977D01*
X3106103Y4042105D01*
X3102243Y4043328D01*
X3098413Y4044645D01*
X3094617Y4046056D01*
X3090857Y4047560D01*
X3087135Y4049155D01*
X3083453Y4050842D01*
X3079814Y4052618D01*
X3076220Y4054483D01*
X3072672Y4056436D01*
X3069173Y4058475D01*
X3065725Y4060599D01*
X3062331Y4062808D01*
X3058992Y4065099D01*
X3055710Y4067471D01*
X3052487Y4069923D01*
X3049325Y4072453D01*
X3046226Y4075061D01*
X3043193Y4077743D01*
X3040226Y4080499D01*
X3037327Y4083327D01*
X3034499Y4086226D01*
X3031743Y4089193D01*
X3029061Y4092226D01*
X3026453Y4095325D01*
X3023923Y4098487D01*
X3021471Y4101710D01*
X3019099Y4104992D01*
X3016808Y4108331D01*
X3014599Y4111725D01*
X3012475Y4115173D01*
X3010436Y4118672D01*
X3008483Y4122220D01*
X3006618Y4125814D01*
X3004842Y4129453D01*
X3003155Y4133135D01*
X3001560Y4136857D01*
X3000056Y4140617D01*
X2998645Y4144413D01*
X2997328Y4148243D01*
X2996105Y4152103D01*
X2994977Y4155992D01*
X2993945Y4159908D01*
X2993009Y4163848D01*
X2992170Y4167810D01*
X2991429Y4171791D01*
X2990786Y4175789D01*
X2990241Y4179802D01*
X2989795Y4183827D01*
X2989447Y4187862D01*
X2989199Y4191904D01*
X2989050Y4195951D01*
X2989000Y4200000D01*
D12*
X0Y200000D02*
X761Y182569D01*
X3038Y165270D01*
X6815Y148236D01*
X12062Y131596D01*
X18738Y115476D01*
X26795Y100000D01*
X36170Y85285D01*
X46791Y71443D01*
X58579Y58579D01*
X71443Y46791D01*
X85285Y36170D01*
X100000Y26795D01*
X115476Y18738D01*
X131596Y12062D01*
X148236Y6815D01*
X165270Y3038D01*
X182569Y761D01*
X200000Y0D01*
X8900000Y0D01*
X8917431Y761D01*
X8934730Y3038D01*
X8951764Y6815D01*
X8968404Y12062D01*
X8984524Y18738D01*
X9000000Y26795D01*
X9014715Y36170D01*
X9028558Y46791D01*
X9041421Y58579D01*
X9053209Y71443D01*
X9063830Y85285D01*
X9073205Y100000D01*
X9081262Y115476D01*
X9087938Y131596D01*
X9093185Y148236D01*
X9096962Y165270D01*
X9099239Y182569D01*
X9100000Y200000D01*
X9100000Y6000000D01*
X9099239Y6017431D01*
X9096962Y6034730D01*
X9093185Y6051764D01*
X9087938Y6068404D01*
X9081262Y6084524D01*
X9073205Y6100000D01*
X9063830Y6114715D01*
X9053209Y6128558D01*
X9041421Y6141421D01*
X9028558Y6153209D01*
X9014715Y6163830D01*
X9000000Y6173205D01*
X8984524Y6181262D01*
X8968404Y6187938D01*
X8951764Y6193185D01*
X8934730Y6196962D01*
X8917431Y6199239D01*
X8900000Y6200000D01*
X5717306Y6200000D01*
X5678086Y6201713D01*
X5639164Y6206837D01*
X5600838Y6215333D01*
X5563397Y6227138D01*
X5527128Y6242162D01*
X5492306Y6260288D01*
X5459197Y6281382D01*
X5428052Y6305280D01*
X5399108Y6331802D01*
X5372586Y6360746D01*
X5348688Y6391891D01*
X5327594Y6425000D01*
X5309468Y6459822D01*
X5294444Y6496091D01*
X5282639Y6533532D01*
X5274143Y6571858D01*
X5269018Y6610780D01*
X5267306Y6650000D01*
X5267306Y6952596D01*
X5265485Y6991698D01*
X5260264Y7030493D01*
X5251681Y7068684D01*
X5239802Y7105983D01*
X5224718Y7142104D01*
X5206542Y7176773D01*
X5185414Y7209726D01*
X5161495Y7240713D01*
X5134966Y7269496D01*
X5106030Y7295858D01*
X5074905Y7319598D01*
X5041831Y7340534D01*
X5007057Y7358509D01*
X4970849Y7373384D01*
X4933483Y7385047D01*
X4895242Y7393409D01*
X4856418Y7398406D01*
X4817306Y7400000D01*
X4293958Y7400000D01*
X4254846Y7398406D01*
X4216022Y7393409D01*
X4177781Y7385047D01*
X4140415Y7373384D01*
X4104207Y7358509D01*
X4069433Y7340534D01*
X4036358Y7319598D01*
X4005234Y7295858D01*
X3976298Y7269496D01*
X3949768Y7240713D01*
X3925849Y7209727D01*
X3904722Y7176773D01*
X3886546Y7142104D01*
X3871462Y7105983D01*
X3859583Y7068685D01*
X3851000Y7030493D01*
X3845778Y6991698D01*
X3843958Y6952730D01*
X3843958Y6650000D01*
X3842246Y6610780D01*
X3837122Y6571858D01*
X3828625Y6533532D01*
X3816820Y6496091D01*
X3801797Y6459822D01*
X3783670Y6425000D01*
X3762577Y6391891D01*
X3738678Y6360746D01*
X3712156Y6331802D01*
X3683213Y6305280D01*
X3652068Y6281382D01*
X3618958Y6260288D01*
X3584136Y6242162D01*
X3547867Y6227138D01*
X3510427Y6215333D01*
X3472100Y6206837D01*
X3433178Y6201713D01*
X3393958Y6200000D01*
X200000Y6200000D01*
X182569Y6199239D01*
X165270Y6196962D01*
X148236Y6193185D01*
X131596Y6187938D01*
X115476Y6181262D01*
X100000Y6173205D01*
X85285Y6163830D01*
X71443Y6153209D01*
X58579Y6141421D01*
X46791Y6128558D01*
X36170Y6114715D01*
X26795Y6100000D01*
X18738Y6084524D01*
X12062Y6068404D01*
X6815Y6051764D01*
X3038Y6034730D01*
X761Y6017431D01*
X0Y6000000D01*
X0Y200000D01*
M02*
